<svg width="70" height="56" viewBox="0 0 70 56" fill="none" xmlns="http://www.w3.org/2000/svg">
<path d="M5.06492 37.13C4.57074 35.7798 15.4425 26.6433 17.1447 25.6391C18.8469 24.6349 58.765 24.2834 59.4239 25.6391C60.0827 26.9948 50.8582 37.13 49.458 37.13C48.0579 37.13 5.55909 38.4802 5.06492 37.13Z" fill="#005B92"/>
<path d="M46.719 7.65665C46.719 10.2032 45.0098 12.1196 43.0683 12.1196C41.1268 12.1196 39.4176 10.2032 39.4176 7.65665C39.4176 5.11011 41.1268 3.19375 43.0683 3.19375C45.0098 3.19375 46.719 5.11011 46.719 7.65665Z" fill="white" stroke="#005B92" stroke-width="0.927548"/>
<path d="M38.5601 15.6672C38.3331 15.5784 36.4426 16.196 36.2956 16.4184C36.1486 16.6408 36.5106 17.1445 36.5106 17.1445L38.6925 16.3779C38.6925 16.3779 38.7871 15.7559 38.5601 15.6672Z" fill="#005B92"/>
<path d="M37.4798 22.7599C37.4798 22.7599 36.7564 23.0422 36.0505 22.475C35.3446 21.9079 35.7856 17.8571 36.1164 17.1696C36.4473 16.4821 37.4841 16.3618 37.4841 16.3618M39.8783 22.0623C39.8783 22.0623 40.5722 22.0106 40.9124 21.2625C41.2525 20.5143 39.7407 16.7789 39.1262 16.3534C38.5117 15.9279 37.4841 16.3618 37.4841 16.3618M37.4841 16.3618C37.2553 15.6333 36.8078 13.757 37.3148 13.1021M48.0171 13.1021C48.3519 13.9019 48.9515 15.5224 48.0169 17.8745" stroke="#005B92" stroke-width="0.927548" stroke-linejoin="round"/>
<ellipse cx="0.447773" cy="0.491057" rx="0.447773" ry="0.491057" transform="matrix(0.983345 0.18175 -0.150312 0.988639 39.4053 21.5923)" fill="#005B92"/>
<path d="M37.9191 22.8052C37.8784 23.0733 37.6482 23.2543 37.405 23.2093C37.1618 23.1644 36.9977 22.9106 37.0385 22.6425C37.0793 22.3743 37.3094 22.1934 37.5526 22.2384C37.7958 22.2833 37.9599 22.5371 37.9191 22.8052Z" fill="#005B92"/>
<path d="M48.6105 17.5094C48.6105 17.8705 48.3192 18.1604 47.9634 18.1604C47.6076 18.1604 47.3163 17.8705 47.3163 17.5094C47.3163 17.1482 47.6076 16.8583 47.9634 16.8583C48.3192 16.8583 48.6105 17.1482 48.6105 17.5094Z" fill="white" stroke="#005B92" stroke-width="0.927548"/>
<path d="M34.1943 14.8834C32.9237 17.0088 30.8595 24.9046 31.2064 25.3472C31.5534 25.7898 49.5746 24.9866 45.0024 26.9139C40.4303 28.8412 41.2504 28.5072 41.1153 29.3276C40.9802 30.148 42.3796 32.4549 43.1227 32.6633C43.8657 32.8718 53.1651 28.9563 54.1157 27.2653C55.0663 25.5743 52.1449 16.0553 50.5357 14.2962C49.5374 13.2049 47.8095 13.1243 46.1039 12.7581C46.1039 12.7581 43.4963 17.2753 42.8251 17.2753C42.1539 17.2753 39.9044 12.7581 39.9044 12.7581C36.7501 13.42 35.465 12.7581 34.1943 14.8834Z" fill="#F2F8FC" stroke="#005B92" stroke-width="0.927548"/>
<path d="M48.5163 21.5903C48.9181 22.5037 49.5621 24.2642 49.3105 24.867C49.059 25.4698 41.1321 28.8394 41.1321 28.8394L43.1475 32.4905" stroke="#005B92" stroke-width="0.795041" stroke-linecap="round"/>
<path d="M49.0741 25.1592L27.8147 25.1592L42.9785 27.8462L49.0741 25.1592Z" fill="#005B92"/>
<path d="M42.1082 30.907C42.1824 31.0417 42.2472 31.1548 42.3042 31.2542C42.3774 31.382 42.4377 31.4873 42.4884 31.5868C42.5305 31.6697 42.5553 31.7289 42.5683 31.7729C42.5765 31.8006 42.5783 31.8162 42.5785 31.823C42.5698 31.8351 42.5426 31.8637 42.4676 31.9083C42.3302 31.9901 42.103 32.0839 41.737 32.2114C41.091 32.4366 40.333 32.3888 39.6965 32.181C39.3804 32.0778 39.1065 31.9389 38.9009 31.7866C38.6906 31.6309 38.5764 31.4799 38.5351 31.3615C38.4873 31.2244 38.501 31.1422 38.5311 31.0795C38.5674 31.0037 38.6506 30.9104 38.8213 30.8015C39.1715 30.5779 39.7351 30.3808 40.4827 30.1203C40.852 29.9915 41.0922 29.9153 41.265 29.8841C41.4317 29.854 41.4801 29.8769 41.5001 29.8886C41.5366 29.9099 41.5942 29.966 41.701 30.1504C41.7582 30.2493 41.8144 30.3561 41.882 30.4847C41.9444 30.6033 42.0165 30.7405 42.1082 30.907ZM42.5821 31.8165C42.5824 31.8165 42.5819 31.8181 42.5798 31.8212C42.5808 31.8181 42.5818 31.8165 42.5821 31.8165Z" fill="#F2F8FC" stroke="#005B92" stroke-width="0.662534"/>
<path d="M43.8145 27.6277H37.6139L32.0266 31.8899H40.0048L43.8145 27.6277Z" fill="#D9D9D9"/>
<path d="M14.7698 31.2642L14.1016 36.9574H32.4851L31.6833 30.0566C31.6833 30.0566 25.831 27.6327 25.6181 28.2865C25.4052 28.9402 24.8626 29.309 23.4044 29.3089C21.9461 29.3088 21.3896 28.6956 21.0421 28.2865C20.7685 27.9643 17.091 29.5346 15.5397 30.2168C15.1143 30.4039 14.824 30.8026 14.7698 31.2642Z" fill="white"/>
<path d="M11.9937 35.6086C12.8906 33.8005 33.2834 34.2575 34.3586 35.6086C35.4338 36.9597 32.7401 42.7301 32.7401 42.7301H14.0008C14.0008 42.7301 11.0968 37.4167 11.9937 35.6086Z" fill="#005B92"/>
<path d="M27.4537 23.1074C27.4537 25.7176 25.6408 27.7131 23.5425 27.7131C21.4442 27.7131 19.6313 25.7176 19.6313 23.1074C19.6313 20.4972 21.4442 18.5016 23.5425 18.5016C25.6408 18.5016 27.4537 20.4972 27.4537 23.1074Z" fill="white" stroke="#005B92" stroke-width="0.927548"/>
</svg>
