<svg width="219" height="52" viewBox="0 0 219 52" fill="none" xmlns="http://www.w3.org/2000/svg">
<path d="M28.8209 28.253C28.8209 30.4193 28.3569 32.3345 27.4289 33.9985C26.5329 35.6311 25.2049 36.9184 23.4449 37.8602C21.7169 38.7707 19.6369 39.226 17.2049 39.226C13.5249 39.226 10.6769 38.237 8.66094 36.259C6.67694 34.2497 5.68494 31.581 5.68494 28.253V6.21289H10.2449V27.9233C10.2449 30.435 10.8209 32.3188 11.9729 33.5747C13.1249 34.8305 14.8689 35.4584 17.2049 35.4584C19.5729 35.4584 21.3329 34.8462 22.4849 33.6218C23.6369 32.3659 24.2129 30.4664 24.2129 27.9233V6.21289H28.8209V28.253ZM49.3222 13.277C52.5542 13.277 54.9222 14.4073 56.4262 16.6678C57.9302 18.9283 58.6822 22.115 58.6822 26.2279C58.6822 30.1211 57.8182 33.2607 56.0902 35.6468C54.3622 38.0329 51.9142 39.226 48.7462 39.226C45.9302 39.226 43.7222 38.2841 42.1222 36.4003V48.1739L37.7062 48.6919V13.8421H41.4982L41.8342 17.1858C42.7622 15.93 43.8822 14.9724 45.1942 14.3131C46.5062 13.6224 47.8822 13.277 49.3222 13.277ZM47.6902 35.6939C51.8502 35.6939 53.9302 32.5386 53.9302 26.2279C53.9302 19.8859 52.0262 16.7149 48.2182 16.7149C46.9702 16.7149 45.8342 17.0759 44.8102 17.7981C43.7862 18.5202 42.8902 19.4464 42.1222 20.5766V32.6799C42.7622 33.6532 43.5622 34.4067 44.5222 34.9404C45.4822 35.4427 46.5382 35.6939 47.6902 35.6939ZM85.9822 6.21289L85.5022 10.0275H76.3342V38.6609H71.7742V10.0275H62.3662V6.21289H85.9822ZM97.882 13.277C101.434 13.277 104.186 14.4387 106.138 16.762C108.122 19.0853 109.114 22.2406 109.114 26.2279C109.114 28.8024 108.666 31.0787 107.77 33.0566C106.874 35.0032 105.578 36.5259 103.882 37.6248C102.186 38.6922 100.17 39.226 97.834 39.226C94.282 39.226 91.514 38.0643 89.53 35.741C87.546 33.4177 86.554 30.2624 86.554 26.275C86.554 23.7005 87.002 21.44 87.898 19.4935C88.794 17.5155 90.09 15.9928 91.786 14.9253C93.482 13.8264 95.514 13.277 97.882 13.277ZM97.882 16.762C93.498 16.762 91.306 19.933 91.306 26.275C91.306 32.5857 93.482 35.741 97.834 35.741C102.186 35.741 104.362 32.57 104.362 26.2279C104.362 19.9173 102.202 16.762 97.882 16.762ZM123.561 6.21289C128.553 6.21289 132.553 7.35881 135.561 9.65074C138.601 11.9113 140.121 16.1184 140.121 22.272C140.121 28.2687 138.601 32.5072 135.561 34.9875C132.553 37.4364 128.889 38.6609 124.569 38.6609H116.649V6.21289H123.561ZM121.209 9.79202V35.1288H124.905C127.977 35.1288 130.473 34.2026 132.393 32.3502C134.313 30.4978 135.273 27.1384 135.273 22.272C135.273 18.8498 134.777 16.2282 133.785 14.4073C132.793 12.5549 131.529 11.3304 129.993 10.7339C128.457 10.106 126.649 9.79202 124.569 9.79202H121.209ZM163.871 32.8682C163.871 33.8729 164.047 34.6264 164.399 35.1288C164.751 35.5997 165.279 35.9608 165.983 36.2119L164.975 39.226C163.663 39.069 162.607 38.7079 161.807 38.1428C161.007 37.5777 160.415 36.6986 160.031 35.5055C158.335 37.9858 155.823 39.226 152.495 39.226C149.999 39.226 148.031 38.5353 146.591 37.1538C145.151 35.7724 144.431 33.9671 144.431 31.738C144.431 29.1007 145.391 27.0756 147.311 25.6628C149.263 24.25 152.015 23.5436 155.567 23.5436H159.455V21.7069C159.455 19.9487 159.023 18.6929 158.159 17.9393C157.295 17.1858 155.967 16.8091 154.175 16.8091C152.319 16.8091 150.047 17.2486 147.359 18.1277L146.255 14.9724C149.391 13.8421 152.303 13.277 154.991 13.277C157.967 13.277 160.191 13.9991 161.663 15.4433C163.135 16.8562 163.871 18.8812 163.871 21.5185V32.8682ZM153.503 35.9765C156.031 35.9765 158.015 34.6892 159.455 32.1147V26.4163H156.143C151.471 26.4163 149.135 28.1117 149.135 31.5025C149.135 32.9781 149.503 34.0927 150.239 34.8462C150.975 35.5997 152.063 35.9765 153.503 35.9765ZM185.708 37.5306C184.044 38.6608 182.156 39.226 180.044 39.226C177.9 39.226 176.22 38.6295 175.004 37.4364C173.82 36.2119 173.228 34.4538 173.228 32.1618V17.1858H168.812V13.8421H173.228V8.23791L177.644 7.71987V13.8421H183.644L183.164 17.1858H177.644V31.9735C177.644 33.2607 177.868 34.2026 178.316 34.7991C178.796 35.3642 179.58 35.6468 180.668 35.6468C181.66 35.6468 182.78 35.3172 184.028 34.6578L185.708 37.5306ZM208.685 25.5215C208.685 26.2436 208.653 26.9815 208.589 27.735H192.461C192.653 30.4664 193.357 32.4758 194.573 33.763C195.789 35.0503 197.357 35.6939 199.277 35.6939C200.493 35.6939 201.613 35.5212 202.637 35.1759C203.661 34.8305 204.733 34.2811 205.853 33.5276L207.773 36.1178C205.085 38.1899 202.141 39.226 198.941 39.226C195.421 39.226 192.669 38.0957 190.685 35.8352C188.733 33.5747 187.757 30.4664 187.757 26.5105C187.757 23.936 188.173 21.6598 189.005 19.6818C189.869 17.6725 191.085 16.1027 192.653 14.9724C194.253 13.8421 196.125 13.277 198.269 13.277C201.629 13.277 204.205 14.3602 205.997 16.5265C207.789 18.6929 208.685 21.6912 208.685 25.5215ZM204.317 24.25C204.317 21.8011 203.821 19.933 202.829 18.6458C201.837 17.3585 200.349 16.7149 198.365 16.7149C194.749 16.7149 192.781 19.3208 192.461 24.5325H204.317V24.25Z" fill="#353535"/>
<path d="M211.716 4.26123C212.568 4.26123 213.342 4.46727 214.038 4.87934C214.746 5.27965 215.298 5.82712 215.694 6.52176C216.102 7.2164 216.306 7.9758 216.306 8.79995C216.306 9.6241 216.102 10.3835 215.694 11.0781C215.298 11.761 214.746 12.3026 214.038 12.7029C213.342 13.1032 212.568 13.3033 211.716 13.3033C210.888 13.3033 210.126 13.1032 209.43 12.7029C208.734 12.3026 208.182 11.761 207.774 11.0781C207.378 10.3835 207.18 9.6241 207.18 8.79995C207.18 7.9758 207.378 7.2164 207.774 6.52176C208.182 5.82712 208.734 5.27965 209.43 4.87934C210.126 4.46727 210.888 4.26123 211.716 4.26123ZM211.716 12.438C212.412 12.438 213.03 12.2849 213.57 11.9788C214.122 11.6609 214.548 11.2253 214.848 10.6719C215.16 10.1186 215.316 9.49459 215.316 8.79995C215.316 8.10531 215.16 7.48131 214.848 6.92795C214.548 6.36282 214.122 5.92131 213.57 5.60342C213.03 5.28553 212.412 5.12659 211.716 5.12659C211.044 5.12659 210.438 5.28553 209.898 5.60342C209.358 5.92131 208.932 6.36282 208.62 6.92795C208.32 7.48131 208.17 8.10531 208.17 8.79995C208.17 9.49459 208.32 10.1186 208.62 10.6719C208.932 11.2253 209.358 11.6609 209.898 11.9788C210.438 12.2849 211.044 12.438 211.716 12.438ZM213.678 7.77565C213.678 8.11708 213.57 8.40553 213.354 8.641C213.138 8.8647 212.856 9.02953 212.508 9.13549L213.84 11.1664H212.634L211.536 9.29444H211.104V11.1664H210.078V6.29217H211.482C212.946 6.29217 213.678 6.78666 213.678 7.77565ZM211.104 8.51738H211.644C212.292 8.51738 212.616 8.27014 212.616 7.77565C212.616 7.5284 212.532 7.3518 212.364 7.24583C212.208 7.1281 211.956 7.06923 211.608 7.06923H211.104V8.51738Z" fill="#232323"/>
</svg>
