<svg width="27" height="27" viewBox="0 0 27 27" fill="none" xmlns="http://www.w3.org/2000/svg">
<circle cx="13.3357" cy="13.4615" r="13" fill="#007AC3"/>
<mask id="mask0_160_296" style="mask-type:luminance" maskUnits="userSpaceOnUse" x="0" y="0" width="27" height="27">
<circle cx="13.3357" cy="13.4615" r="13" fill="white"/>
</mask>
<g mask="url(#mask0_160_296)">
<rect x="4.15921" y="4.28499" width="18.3529" height="18.3529" fill="#85BC20"/>
<rect x="0.335693" y="10.4026" width="26" height="6.11765" fill="#A6D1EA"/>
<rect x="10.2769" y="10.4026" width="16.0588" height="6.11765" fill="#409BD2"/>
<rect x="10.2769" y="0.461456" width="6.11765" height="26" fill="#A6D1EA"/>
<rect x="10.2769" y="10.4026" width="6.11765" height="16.0588" fill="#409BD2"/>
<rect x="10.2769" y="10.4026" width="12.2353" height="12.2353" fill="#A4CD58"/>
<rect x="4.15921" y="4.28499" width="12.2353" height="12.2353" fill="#D4E8B1"/>
<rect x="0.335693" y="0.461456" width="9.94118" height="9.94118" fill="#409BD2"/>
<rect x="10.2769" y="10.4026" width="6.11765" height="6.11765" fill="#E5202E"/>
<rect x="4.15921" y="4.28499" width="6.11765" height="6.11765" fill="#A4CD58"/>
<rect x="16.3945" y="16.5203" width="6.11765" height="6.11765" fill="#85BC20"/>
</g>
<g clip-path="url(#clip0_160_296)">
<path fill-rule="evenodd" clip-rule="evenodd" d="M24.2732 24.2115H24.7567C24.8552 24.2115 24.9417 24.223 25.0048 24.2469C25.2082 24.3041 25.3075 24.4525 25.3075 24.6227C25.3075 24.8637 25.1182 24.9884 24.9417 25.0292V25.036C25.0473 25.0871 25.2125 25.3839 25.3982 25.7115H25.0352C24.8311 25.3554 24.7099 25.1198 24.6425 25.1143H24.5886V25.7115H24.2732V24.2115ZM24.6645 24.8746C24.8268 24.8746 24.9693 24.8127 24.9693 24.6581C24.9693 24.5662 24.9282 24.4967 24.8438 24.4756C24.7971 24.4559 24.7453 24.4525 24.6723 24.4525H24.5886V24.8746H24.6645Z" fill="#474747"/>
<path fill-rule="evenodd" clip-rule="evenodd" d="M26.3357 24.9615C26.3357 25.7897 25.664 26.4615 24.8357 26.4615C24.0074 26.4615 23.3357 25.7897 23.3357 24.9615C23.3357 24.1332 24.0074 23.4615 24.8357 23.4615C25.664 23.4615 26.3357 24.1332 26.3357 24.9615ZM24.835 23.7775C24.1809 23.7775 23.651 24.3081 23.651 24.9615C23.651 25.6148 24.1816 26.1454 24.835 26.1454C25.489 26.1454 26.0197 25.6148 26.0197 24.9615C26.0197 24.3081 25.489 23.7775 24.835 23.7775Z" fill="#474747"/>
</g>
<defs>
<clipPath id="clip0_160_296">
<rect width="3" height="3" fill="white" transform="translate(23.3357 23.4615)"/>
</clipPath>
</defs>
</svg>
